<?xml version="1.0" encoding="UTF-8"?>
<svg width="150px" height="150px" viewBox="0 0 150 150" version="1.1" xmlns="http://www.w3.org/2000/svg" xmlns:xlink="http://www.w3.org/1999/xlink">
    <title>Logo</title>
    <g id="Logo" stroke="none" stroke-width="1" fill="none" fill-rule="evenodd">
        <g id="Group-11" transform="translate(34.000000, 13.000000)">
            <path d="M53.2303879,23.8769155 L53.2303879,29.8317168 L72.7199943,29.8317168 C74.9943233,29.8317168 76.8378521,31.6794139 76.8378521,33.9581652 L76.8378521,49.0421572 C76.8378521,51.3189741 74.9946451,53.1686056 72.7199943,53.1686056 L53.2303879,53.1686056 L53.2303879,72.6985484 C53.2303879,74.9776221 51.3868591,76.8249968 49.1125301,76.8249968 L34.0602622,76.8249968 C31.7859332,76.8249968 29.9424044,74.9776221 29.9424044,72.6985484 L29.9424044,65.2329621 L24,65.2329621 L24,72.7459418 C24,78.4092899 28.5814747,83 34.2330327,83 L48.9371858,83 C54.5887437,83 59.1702185,78.4092899 59.1702185,72.7459418 L59.1702185,59.1205053 L72.767289,59.1205053 C78.4185253,59.1205053 83,54.5297952 83,48.8661247 L83,34.1338753 C83,28.4692376 78.4175601,23.8769155 72.7647152,23.8769155 L59.1702185,23.8769155 L59.1702185,10.2543806 C59.1702185,4.59103251 54.5890654,0 48.9371858,0 L34.2356065,0 C28.5827617,0 24,4.59232212 24,10.2569598 L24,17.7673603 L29.9424044,17.7673603 L29.9424044,10.301774 C29.9424044,8.02108833 31.7872201,6.17242397 34.062836,6.17242397 L49.3692729,6.17242397 C51.4187107,6.17242397 53.0852865,7.82764595 53.1036252,9.88103682 L53.2303879,23.8769155 Z" id="Fill-1" fill="#23305B"></path>
            <path d="M40.8367848,58.616756 L31.2974157,53.2295036 L10.308158,53.2295036 C8.02695542,53.2295036 6.17902324,51.3841002 6.17902324,49.1120921 L6.17902324,34.0599578 C6.17902324,31.7860194 8.02760065,29.9422246 10.308158,29.9422246 L36.2521193,29.9422246 C38.7839929,29.9422246 40.8367848,31.9893483 40.8367848,34.5142308 L40.8367848,58.616756 Z M36.3543879,24 L10.2610564,24 C4.59402135,24 0,28.5813361 0,34.2327231 L0,48.9364313 C0,54.58814 4.59402135,59.1691544 10.2610564,59.1691544 L29.8511377,59.1691544 L40.8367848,65.3732616 L43.112503,66.6588669 C44.8488108,67.6394787 47,66.3889412 47,64.3994059 L47,34.616217 C47,28.7531362 42.2340255,24 36.3543879,24 L36.3543879,24 Z" id="Fill-3" fill="#1BBDD4"></path>
            <path d="M10,41.4998523 C10,40.1192178 11.1195132,39 12.5001477,39 C13.8807822,39 15,40.1192178 15,41.4998523 C15,42.8804868 13.8807822,44 12.5001477,44 C11.1195132,44 10,42.8804868 10,41.4998523" id="Fill-5" fill="#23305B"></path>
            <path d="M21,41.4998523 C21,40.1192178 22.1195132,39 23.5001477,39 C24.8807822,39 26,40.1192178 26,41.4998523 C26,42.8804868 24.8807822,44 23.5001477,44 C22.1195132,44 21,42.8804868 21,41.4998523" id="Fill-7" fill="#23305B"></path>
            <path d="M31,41.4998523 C31,40.1192178 32.1192178,39 33.4998523,39 C34.8807822,39 36,40.1192178 36,41.4998523 C36,42.8804868 34.8807822,44 33.4998523,44 C32.1192178,44 31,42.8804868 31,41.4998523" id="Fill-9" fill="#23305B"></path>
        </g>
        <g id="Group" transform="translate(-66.000000, 108.000000)" fill="#1BBDD4" fill-rule="nonzero">
            <g id="App-Name">
                <path d="M92.1405944,32 L93.8228235,27.776 L104.084421,27.776 L105.738613,32 L109.775963,32 L100.972297,9.6 L96.9349474,9.6 L88.1312817,32 L92.1405944,32 Z M102.598452,23.84 L95.3087926,23.84 L98.9536223,14.304 L102.598452,23.84 Z M114.121721,32 L114.121721,9.632 L110.729226,9.632 L110.729226,32 L114.121721,32 Z M123.934724,32.416 C126.037511,32.416 128.420669,31.584 129.878601,29.856 L127.691703,27.392 C126.906663,28.32 125.252471,28.864 123.990799,28.864 C121.579604,28.864 120.093635,27.456 119.869337,25.504 L130.663641,25.504 C131.196347,19.008 128.30852,15.744 123.68239,15.744 C119.196446,15.744 116.336656,19.2 116.336656,24 C116.336656,29.056 119.168409,32.416 123.934724,32.416 Z M127.383294,22.272 L119.925412,22.272 C120.43008,20.224 121.944087,19.2 123.794539,19.2 C125.757139,19.2 127.158997,20.224 127.383294,22.272 Z M136.551443,32 L136.551443,23.68 C136.551443,20.768 138.205635,19.68 140.000012,19.68 C141.121498,19.68 141.766353,20.032 142.467282,20.704 L144.009325,17.312 C143.252322,16.448 141.878502,15.808 140.448607,15.808 C139.046749,15.808 137.616854,16.096 136.551443,18.048 L136.299108,16.224 L133.13091,16.224 L133.13091,32 L136.551443,32 Z M152.364396,32.192 C153.401771,32.16 154.214848,31.968 155.196149,31.52 L154.242885,28.192 C153.738217,28.48 153.121399,28.672 152.588693,28.672 C151.523282,28.672 150.794316,27.936 150.794316,26.432 L150.794316,19.616 L154.635406,19.616 L154.635406,16.256 L150.822353,16.256 L150.822353,11.776 L147.40182,12.192 L147.40182,16.256 L144.822402,16.256 L144.822402,19.616 L147.40182,19.616 L147.40182,26.432 C147.40182,30.368 149.364421,32.32 152.364396,32.192 Z M156.710155,11.776 C156.710155,14.816 160.747505,14.816 160.747505,11.776 C160.747505,8.736 156.710155,8.736 156.710155,11.776 Z M160.439096,32 L160.439096,16.16 L157.018563,16.16 L157.018563,32 L160.439096,32 Z M171.794142,32.064 L177.681944,16.192 L173.953003,16.192 L172.046477,21.472 L169.94369,28.064 L167.812867,21.408 L165.906341,16.192 L162.177399,16.192 L168.093238,32.064 L171.794142,32.064 Z M186.149164,32.416 C188.25195,32.416 190.635108,31.584 192.09304,29.856 L189.906142,27.392 C189.121102,28.32 187.46691,28.864 186.205238,28.864 C183.794043,28.864 182.308074,27.456 182.083777,25.504 L192.87808,25.504 C193.410786,19.008 190.52296,15.744 185.89683,15.744 C181.410885,15.744 178.551096,19.2 178.551096,24 C178.551096,29.056 181.382848,32.416 186.149164,32.416 Z M189.597734,22.272 L182.139851,22.272 C182.64452,20.224 184.158526,19.2 186.008978,19.2 C187.971579,19.2 189.373437,20.224 189.597734,22.272 Z" id="Alertive"></path>
            </g>
        </g>
    </g>
</svg>